<svg width="34" height="36" viewBox="0 0 34 36" fill="none" xmlns="http://www.w3.org/2000/svg">
<path d="M11.0354 23.8054C9.58261 22.284 8.76074 20.2134 8.76074 18.0475C8.76074 15.8816 9.58261 13.811 11.0354 12.2896C12.487 10.7694 14.4482 9.92215 16.4854 9.92215C18.5227 9.92215 20.4839 10.7694 21.9355 12.2896C23.3882 13.811 24.2101 15.8816 24.2101 18.0475C24.2101 20.2134 23.3882 22.284 21.9355 23.8054C20.4839 25.3256 18.5227 26.1729 16.4854 26.1729C14.4482 26.1729 12.487 25.3256 11.0354 23.8054ZM20.9191 22.6426C22.0882 21.4182 22.7392 19.7647 22.7392 18.0475C22.7392 16.3303 22.0882 14.6768 20.9191 13.4524C19.7489 12.2269 18.1542 11.5316 16.4836 11.5316C14.813 11.5316 13.2183 12.2269 12.0481 13.4524C10.879 14.6768 10.228 16.3303 10.228 18.0475C10.228 19.7647 10.879 21.4182 12.0481 22.6426C13.2183 23.8681 14.813 24.5634 16.4836 24.5634C18.1542 24.5634 19.7489 23.8681 20.9191 22.6426Z" stroke="#336699" stroke-width="1.5"/>
<path d="M7.70127 7.49992C8.3459 7.49992 8.92695 8.05747 8.92695 8.81905C8.92695 9.58063 8.34591 10.1382 7.70127 10.1382C7.05663 10.1382 6.47559 9.58063 6.47559 8.81905C6.47559 8.05747 7.05663 7.49992 7.70127 7.49992Z" stroke="#336699" stroke-width="1.5"/>
<path d="M0.84832 10.9476L0.848663 10.9393L0.848825 10.9311C0.875333 9.579 1.12053 8.242 1.5735 6.97706C1.96252 5.92516 2.55587 4.97222 3.31378 4.17818C4.0716 3.38424 4.97708 2.76674 5.97128 2.36302C7.18678 1.88443 8.47108 1.6294 9.7679 1.60854L9.78482 1.60827L9.80171 1.60723C11.5286 1.50141 12.073 1.50115 16.5554 1.50115C21.0272 1.50115 21.5732 1.52605 23.3199 1.60782L23.3296 1.60827L23.3392 1.60847C24.6201 1.63537 25.8837 1.88792 27.083 2.3593C28.077 2.76365 28.9824 3.38133 29.7404 4.17514C30.4985 4.9691 31.0924 5.92171 31.4824 6.97329C31.9344 8.23837 32.1789 9.57525 32.2052 10.9271L32.2054 10.9404L32.2062 10.9537C32.3056 12.7624 32.3058 13.3419 32.3058 18.0335C32.3058 22.7155 32.2821 23.2895 32.2057 25.1233L32.2056 25.1233L32.2054 25.131C32.1628 26.4867 31.8997 27.8241 31.4278 29.0857L31.4268 29.0885C31.0375 30.1418 30.4436 31.0961 29.6848 31.8914C28.9272 32.6854 28.022 33.3033 27.0281 33.7077C25.8268 34.1792 24.5632 34.4317 23.2824 34.4586L23.2673 34.4589L23.2523 34.4598C21.5254 34.5657 20.9791 34.5659 16.4986 34.5659C12.0268 34.5659 11.4808 34.541 9.73409 34.4593L9.72424 34.4588L9.71438 34.4586C8.43556 34.4324 7.16966 34.1787 5.9706 33.7076C4.97638 33.3044 4.07089 32.6872 3.31318 31.8934C2.55515 31.0992 1.96194 30.1459 1.57342 29.0936C1.1192 27.8307 0.873984 26.4951 0.848839 25.1444L0.848593 25.1312L0.847879 25.118C0.750199 23.3088 0.75 22.729 0.75 18.0374C0.75 13.3548 0.771963 12.7811 0.84832 10.9476ZM26.5264 3.90183C25.6851 3.57702 24.8065 3.37219 23.9144 3.29221V3.26794L23.1997 3.23427C21.43 3.15091 20.9305 3.15091 16.4912 3.15091H16.4674C12.0057 3.15091 11.4956 3.17196 9.74424 3.25487C8.61552 3.27554 7.49869 3.49431 6.44043 3.90152L6.44039 3.90142L6.42844 3.90625C5.61524 4.23531 4.87931 4.73775 4.26681 5.37921C3.6544 6.02057 3.17873 6.78685 2.86843 7.62793L2.86838 7.62791L2.86535 7.63644C2.47474 8.73585 2.26757 9.8965 2.25233 11.068C2.15127 12.9315 2.15127 13.4436 2.15127 18.081V18.1065C2.15127 22.7796 2.17321 23.3114 2.2523 25.1433C2.26916 26.3148 2.47616 27.4753 2.86493 28.5753L2.86489 28.5753L2.86764 28.5829C3.49077 30.2878 4.7774 31.6517 6.42833 32.3201L6.42829 32.3202L6.4395 32.3245C7.5075 32.7371 8.63575 32.9561 9.77546 32.9716C11.5592 33.0736 12.0495 33.0736 16.4737 33.0736H16.5004C20.9596 33.0736 21.4719 33.0544 23.2218 32.9715C24.3505 32.9508 25.4673 32.7321 26.5256 32.3249L26.5256 32.325L26.5381 32.3199C27.3529 31.9896 28.0898 31.4848 28.7022 30.8404C29.3146 30.1961 29.789 29.4265 30.0968 28.5823L30.0968 28.5823L30.0988 28.5765C30.4892 27.4777 30.6964 26.3178 30.7119 25.1469C30.8129 23.2815 30.8129 22.7714 30.8129 18.1321V18.1065C30.8129 13.4365 30.7928 12.9017 30.7119 11.0715C30.6961 9.89912 30.489 8.73761 30.0991 7.63703L30.0991 7.63701L30.096 7.62844C29.7863 6.78719 29.311 6.02068 28.6988 5.37917C28.0865 4.73757 27.3507 4.2351 26.5375 3.9062L26.5375 3.90612L26.5264 3.90183Z" stroke="#336699" stroke-width="1.5"/>
</svg>
